<?xml version="1.0" encoding="UTF-8"?>
<svg id="Layer_1" xmlns="http://www.w3.org/2000/svg" version="1.1" xmlns:xlink="http://www.w3.org/1999/xlink" viewBox="0 0 288 93.6">
  <!-- Generator: Adobe Illustrator 29.0.0, SVG Export Plug-In . SVG Version: 2.1.0 Build 186)  -->
  <defs>
    <style>
      .st0 {
        clip-path: url(#clippath-6);
      }

      .st1 {
        clip-path: url(#clippath-7);
      }

      .st2 {
        stroke: #231f20;
        stroke-miterlimit: 10;
        stroke-width: .5px;
      }

      .st3 {
        stroke: #aeaeae;
      }

      .st3, .st4, .st5, .st6 {
        fill: none;
      }

      .st3, .st5, .st6 {
        stroke-miterlimit: 8;
        stroke-width: 4.5px;
      }

      .st7 {
        clip-path: url(#clippath-4);
      }

      .st8 {
        fill: #fff;
        fill-rule: evenodd;
      }

      .st9 {
        clip-path: url(#clippath-1);
      }

      .st10 {
        clip-path: url(#clippath-5);
      }

      .st11 {
        clip-path: url(#clippath-3);
      }

      .st4 {
        clip-rule: evenodd;
      }

      .st5 {
        stroke: red;
      }

      .st6 {
        stroke: #0164ff;
      }

      .st12 {
        clip-path: url(#clippath-2);
      }

      .st13 {
        clip-path: url(#clippath);
      }
    </style>
    <clipPath id="clippath">
      <polygon class="st4" points="-60.48 98.4 316.32 98.4 316.32 0 -60.48 0 -60.48 98.4 -60.48 98.4"/>
    </clipPath>
    <clipPath id="clippath-1">
      <polygon class="st4" points="-60.48 98.4 316.32 98.4 316.32 0 -60.48 0 -60.48 98.4 -60.48 98.4"/>
    </clipPath>
    <clipPath id="clippath-2">
      <polygon class="st4" points="-60.48 98.4 316.32 98.4 316.32 0 -60.48 0 -60.48 98.4 -60.48 98.4"/>
    </clipPath>
    <clipPath id="clippath-3">
      <polygon class="st4" points="-60.48 98.4 316.32 98.4 316.32 0 -60.48 0 -60.48 98.4 -60.48 98.4"/>
    </clipPath>
    <clipPath id="clippath-4">
      <polygon class="st4" points="-60.48 98.4 316.32 98.4 316.32 0 -60.48 0 -60.48 98.4 -60.48 98.4"/>
    </clipPath>
    <clipPath id="clippath-5">
      <polygon class="st4" points="-60.48 98.4 316.32 98.4 316.32 0 -60.48 0 -60.48 98.4 -60.48 98.4"/>
    </clipPath>
    <clipPath id="clippath-6">
      <polygon class="st4" points="-60.48 98.4 316.32 98.4 316.32 0 -60.48 0 -60.48 98.4 -60.48 98.4"/>
    </clipPath>
    <clipPath id="clippath-7">
      <polygon class="st4" points="-60.48 98.4 316.32 98.4 316.32 0 -60.48 0 -60.48 98.4 -60.48 98.4"/>
    </clipPath>
  </defs>
  <g>
    <polygon class="st8" points="-60.48 0 316.32 0 316.32 98.4 -60.48 98.4 -60.48 0 -60.48 0"/>
    <path class="st3" d="M-45.6,72.48c6.27-5.64,12.55-11.28,18.74-11.28s12.28,11.28,18.43,11.28,12.28-11.28,18.43-11.28,12.28,11.28,18.43,11.28,12.28-11.28,18.43-11.28,12.28,11.28,18.43,11.28,12.28-11.28,18.43-11.28,12.28,11.28,18.43,11.28,12.28-11.28,18.43-11.28,12.28,11.28,18.43,11.28,12.28-11.28,18.43-11.28,12.28,11.28,18.43,11.28,12.28-11.28,18.43-11.28,12.28,11.28,18.43,11.28,12.28-5.64,18.43-11.28"/>
    <g class="st13">
      <path class="st3" d="M-33.48,72.48c6.28-5.64,12.55-11.28,18.75-11.28s12.29,11.28,18.44,11.28,12.29-11.28,18.44-11.28,12.29,11.28,18.44,11.28,12.29-11.28,18.44-11.28,12.29,11.28,18.44,11.28,12.29-11.28,18.44-11.28,12.29,11.28,18.44,11.28,12.29-11.28,18.44-11.28,12.29,11.28,18.44,11.28,12.29-11.28,18.44-11.28,12.29,11.28,18.44,11.28,12.29-11.28,18.44-11.28,12.29,11.28,18.44,11.28,12.29-5.64,18.44-11.28"/>
      <g class="st9">
        <polygon class="st8" points="206.4 44.64 243.12 44.64 243.12 64.56 206.4 64.56 206.4 44.64 206.4 44.64"/>
        <g class="st12">
          <polygon class="st8" points="-47.04 46.56 7.68 46.56 7.68 94.08 -47.04 94.08 -47.04 46.56 -47.04 46.56"/>
          <g class="st11">
            <polygon class="st8" points="213.12 66.48 286.32 66.48 286.32 77.76 213.12 77.76 213.12 66.48 213.12 66.48"/>
            <g class="st7">
              <polygon class="st8" points="209.52 48.12 282.72 48.12 282.72 68.04 209.52 68.04 209.52 48.12 209.52 48.12"/>
              <g class="st10">
                <line class="st3" x1="206.4" y1="61.2" x2="212.65" y2="61.2"/>
                <g class="st0">
                  <line class="st6" x1="212.76" y1="72.48" x2="260.99" y2="72.48"/>
                  <g class="st1">
                    <line class="st5" x1="212.76" y1="61.2" x2="243.13" y2="61.2"/>
                  </g>
                </g>
              </g>
            </g>
          </g>
        </g>
      </g>
    </g>
  </g>
  <g>
    <path class="st2" d="M23.23,36.26v19h-7.93v-19h-6.07v-7.66h20.06v7.66h-6.05Z"/>
    <path class="st2" d="M50.81,46.71h-11.07c-.17-.56-.25-1.07-.25-1.54,0-.65.12-1.29.35-1.91h3.71c-.26-1.45-1.07-2.17-2.44-2.17-.91,0-1.65.39-2.23,1.16-.57.77-.86,1.77-.86,2.98s.28,2.29.83,3.07c.55.78,1.28,1.17,2.18,1.17.73,0,1.43-.36,2.11-1.09l4.16,5c-1.94,1.52-4.1,2.29-6.46,2.29-2.89,0-5.32-.97-7.29-2.91-1.97-1.94-2.95-4.34-2.95-7.21s.99-5.26,2.98-7.23c1.99-1.97,4.42-2.95,7.31-2.95s5.2.96,7.12,2.88c1.92,1.92,2.88,4.29,2.88,7.1,0,.29-.03.74-.08,1.37Z"/>
    <path class="st2" d="M61.14,28.61v26.66h-7.3v-26.66h7.3Z"/>
    <path class="st2" d="M74.66,35.38c2.76,0,5.13.99,7.1,2.98,1.97,1.99,2.96,4.37,2.96,7.14s-1,5.21-3,7.19c-2,1.98-4.41,2.97-7.24,2.97s-5.24-.99-7.25-2.98c-2.01-1.99-3.01-4.38-3.01-7.18s1-5.25,3.01-7.2c2-1.95,4.48-2.92,7.42-2.92ZM74.46,42.59c-.78,0-1.45.28-1.99.85s-.82,1.26-.82,2.08.28,1.5.83,2.07c.55.57,1.21.86,1.98.86s1.45-.29,2-.86c.55-.57.83-1.26.83-2.07s-.27-1.51-.82-2.08-1.22-.85-2.01-.85Z"/>
    <path class="st2" d="M100.83,28.49v7.6c-.57-.2-1.02-.29-1.33-.29-.6,0-1.11.22-1.54.66-.43.44-.64.98-.64,1.6,0,.53.23,1.21.7,2.03l.61,1.05c1.09,1.9,1.64,3.74,1.64,5.51,0,2.59-.92,4.79-2.76,6.58-1.84,1.8-4.09,2.7-6.75,2.7-1.28,0-2.54-.29-3.79-.88v-7.71c.75.48,1.43.72,2.01.72.69,0,1.27-.2,1.73-.6.46-.4.69-.9.69-1.49,0-.39-.37-1.24-1.11-2.56-1.19-2.08-1.78-4.17-1.78-6.25,0-2.51.9-4.68,2.69-6.49,1.79-1.82,3.93-2.72,6.42-2.72,1.09,0,2.17.18,3.22.55Z"/>
    <path class="st2" d="M123.45,46.71h-11.07c-.17-.56-.25-1.07-.25-1.54,0-.65.12-1.29.35-1.91h3.71c-.26-1.45-1.07-2.17-2.44-2.17-.91,0-1.65.39-2.23,1.16-.57.77-.86,1.77-.86,2.98s.28,2.29.83,3.07c.55.78,1.28,1.17,2.18,1.17.73,0,1.43-.36,2.11-1.09l4.16,5c-1.94,1.52-4.1,2.29-6.46,2.29-2.89,0-5.32-.97-7.29-2.91-1.97-1.94-2.95-4.34-2.95-7.21s.99-5.26,2.98-7.23c1.99-1.97,4.42-2.95,7.31-2.95s5.2.96,7.12,2.88c1.92,1.92,2.88,4.29,2.88,7.1,0,.29-.03.74-.08,1.37Z"/>
    <path class="st2" d="M137.3,47.96v7.56c-.6.1-1.15.16-1.64.16-2.93,0-5.37-.96-7.32-2.89-1.95-1.93-2.93-4.34-2.93-7.25s.99-5.22,2.96-7.19c1.97-1.97,4.37-2.95,7.2-2.95,3.15,0,5.64.92,7.45,2.76,1.82,1.84,2.72,4.36,2.72,7.55v9.55h-7.3v-9.02c0-1.03-.25-1.85-.75-2.46-.5-.61-1.18-.92-2.02-.92-.77,0-1.43.28-1.99.84s-.84,1.22-.84,1.99c0,.81.25,1.47.76,1.99.51.52,1.15.78,1.93.78.64,0,1.23-.17,1.78-.51Z"/>
    <path class="st2" d="M160.67,35.6v7.81c-.51-.29-.97-.43-1.39-.43-1.33,0-1.99,1.02-1.99,3.05v9.24h-7.3v-10.64c0-2.81.77-5.06,2.3-6.73,1.54-1.67,3.59-2.51,6.15-2.51.57,0,1.32.07,2.23.21Z"/>
    <path class="st2" d="M174.78,46.3l7.25-.27c-.21,2.81-1.26,5.12-3.14,6.93-1.89,1.81-4.19,2.71-6.89,2.71-2.86,0-5.28-1-7.26-2.99s-2.96-4.43-2.96-7.32,1-5.1,2.99-7.05,4.38-2.93,7.17-2.93c2.43,0,4.58.77,6.45,2.3,1.86,1.54,3.02,3.5,3.48,5.88l-7.4.27c-.64-.83-1.45-1.25-2.42-1.25-.83,0-1.52.27-2.05.82s-.8,1.24-.8,2.07.28,1.56.85,2.13c.57.57,1.27.86,2.12.86,1.24,0,2.12-.72,2.64-2.17Z"/>
    <path class="st2" d="M192.51,28.61v8.14c1.24-.9,2.47-1.35,3.71-1.35,1.88,0,3.36.68,4.46,2.03,1.1,1.35,1.65,3.18,1.65,5.49v12.34h-7.3v-10.29c0-.83-.09-1.39-.26-1.68-.18-.29-.52-.43-1.03-.43-.82,0-1.23.61-1.23,1.82v10.59h-7.3v-26.66h7.3Z"/>
    <path class="st2" d="M206.59,28.61h7.93v15.84c0,1.24.2,2.06.6,2.47s1.18.62,2.35.62h.41v7.73h-2.11c-2.89,0-5.14-.84-6.76-2.53-1.61-1.69-2.42-4.03-2.42-7.02v-17.11Z"/>
    <path class="st2" d="M228.49,35.77v19.49h-7.93v-26.66h10.18c3.1,0,5.5.77,7.21,2.3,1.9,1.72,2.85,3.9,2.85,6.54s-1.18,4.97-3.54,6.82l4.57,11h-8.32l-3.85-8.59v-6.86h.62c1.67,0,2.5-.72,2.5-2.15,0-1.26-.96-1.89-2.89-1.89h-1.41Z"/>
  </g>
</svg>