<?xml version="1.0" encoding="UTF-8"?>
<svg id="Layer_1" xmlns="http://www.w3.org/2000/svg" version="1.1" xmlns:xlink="http://www.w3.org/1999/xlink" viewBox="0 0 288 93.6">
  <!-- Generator: Adobe Illustrator 29.0.0, SVG Export Plug-In . SVG Version: 2.1.0 Build 186)  -->
  <defs>
    <style>
      .st0 {
        clip-path: url(#clippath-6);
      }

      .st1 {
        clip-path: url(#clippath-7);
      }

      .st2 {
        font-family: Bauhaus93, 'Bauhaus 93';
        font-size: 44.04px;
      }

      .st3 {
        stroke: #aeaeae;
      }

      .st3, .st4, .st5, .st6, .st7 {
        fill: none;
      }

      .st3, .st6, .st7 {
        stroke-miterlimit: 8;
        stroke-width: 4.5px;
      }

      .st8 {
        clip-path: url(#clippath-4);
      }

      .st9 {
        fill: #fff;
        fill-rule: evenodd;
      }

      .st10 {
        clip-path: url(#clippath-1);
      }

      .st11 {
        clip-path: url(#clippath-5);
      }

      .st12 {
        clip-path: url(#clippath-8);
      }

      .st13 {
        clip-path: url(#clippath-3);
      }

      .st5 {
        clip-rule: evenodd;
      }

      .st6 {
        stroke: red;
      }

      .st7 {
        stroke: #0164ff;
      }

      .st14 {
        clip-path: url(#clippath-2);
      }

      .st15 {
        clip-path: url(#clippath);
      }
    </style>
    <clipPath id="clippath">
      <polygon class="st5" points="-48.01 94.26 328.79 94.26 328.79 -.66 -48.01 -.66 -48.01 94.26 -48.01 94.26"/>
    </clipPath>
    <clipPath id="clippath-1">
      <polygon class="st5" points="-48.01 94.26 328.79 94.26 328.79 -.66 -48.01 -.66 -48.01 94.26 -48.01 94.26"/>
    </clipPath>
    <clipPath id="clippath-2">
      <polygon class="st5" points="-48.01 94.26 328.79 94.26 328.79 -.66 -48.01 -.66 -48.01 94.26 -48.01 94.26"/>
    </clipPath>
    <clipPath id="clippath-3">
      <polygon class="st5" points="-48.01 94.26 328.79 94.26 328.79 -.66 -48.01 -.66 -48.01 94.26 -48.01 94.26"/>
    </clipPath>
    <clipPath id="clippath-4">
      <polygon class="st5" points="-48.01 94.26 328.79 94.26 328.79 -.66 -48.01 -.66 -48.01 94.26 -48.01 94.26"/>
    </clipPath>
    <clipPath id="clippath-5">
      <polygon class="st5" points="-48.01 94.26 328.79 94.26 328.79 -.66 -48.01 -.66 -48.01 94.26 -48.01 94.26"/>
    </clipPath>
    <clipPath id="clippath-6">
      <polygon class="st5" points="-48.01 94.26 328.79 94.26 328.79 -.66 -48.01 -.66 -48.01 94.26 -48.01 94.26"/>
    </clipPath>
    <clipPath id="clippath-7">
      <polygon class="st5" points="-48.01 94.26 328.79 94.26 328.79 -.66 -48.01 -.66 -48.01 94.26 -48.01 94.26"/>
    </clipPath>
    <clipPath id="clippath-8">
      <rect class="st4" x="-48.01" y="-.66" width="376.8" height="94.92"/>
    </clipPath>
  </defs>
  <polygon class="st9" points="-48.01 .18 328.79 .18 328.79 94.26 -48.01 94.26 -48.01 .18 -48.01 .18"/>
  <path class="st3" d="M-33.13,72.66c6.27-5.64,12.55-11.28,18.74-11.28s12.28,11.28,18.43,11.28,12.28-11.28,18.43-11.28,12.28,11.28,18.43,11.28,12.28-11.28,18.43-11.28,12.28,11.28,18.43,11.28,12.28-11.28,18.43-11.28,12.28,11.28,18.43,11.28,12.28-11.28,18.43-11.28,12.28,11.28,18.43,11.28,12.28-11.28,18.43-11.28,12.28,11.28,18.43,11.28,12.28-11.28,18.43-11.28,12.28,11.28,18.43,11.28,12.28-5.64,18.43-11.28"/>
  <g class="st15">
    <path class="st3" d="M-21.01,72.66c6.28-5.64,12.55-11.28,18.75-11.28s12.29,11.28,18.44,11.28,12.29-11.28,18.44-11.28,12.29,11.28,18.44,11.28,12.29-11.28,18.44-11.28,12.29,11.28,18.44,11.28,12.29-11.28,18.44-11.28,12.29,11.28,18.44,11.28,12.29-11.28,18.44-11.28,12.29,11.28,18.44,11.28,12.29-11.28,18.44-11.28,12.29,11.28,18.44,11.28,12.29-11.28,18.44-11.28,12.29,11.28,18.44,11.28,12.29-5.64,18.44-11.28"/>
    <g class="st10">
      <polygon class="st9" points="-34.57 46.74 20.15 46.74 20.15 94.26 -34.57 94.26 -34.57 46.74 -34.57 46.74"/>
      <g class="st14">
        <polygon class="st9" points="225.59 66.66 298.79 66.66 298.79 77.94 225.59 77.94 225.59 66.66 225.59 66.66"/>
        <g class="st13">
          <polygon class="st9" points="218.87 46.74 292.19 46.74 292.19 66.66 218.87 66.66 218.87 46.74 218.87 46.74"/>
          <g class="st8">
            <line class="st3" x1="218.87" y1="61.38" x2="225.13" y2="61.38"/>
            <g class="st11">
              <line class="st7" x1="225.23" y1="72.66" x2="273.47" y2="72.66"/>
              <g class="st0">
                <line class="st6" x1="225.23" y1="61.38" x2="255.61" y2="61.38"/>
                <g class="st1">
                  <g class="st12">
                    <text class="st2" transform="translate(19.16 54.6)"><tspan x="0" y="0">TeloSearchLR</tspan></text>
                  </g>
                </g>
              </g>
            </g>
          </g>
        </g>
      </g>
    </g>
  </g>
</svg>