<?xml version="1.0" encoding="UTF-8"?>
<svg id="Layer_1" xmlns="http://www.w3.org/2000/svg" version="1.1" xmlns:xlink="http://www.w3.org/1999/xlink" viewBox="0 0 288 93.6">
  <!-- Generator: Adobe Illustrator 29.0.0, SVG Export Plug-In . SVG Version: 2.1.0 Build 186)  -->
  <defs>
    <style>
      .st0 {
        clip-path: url(#clippath-6);
      }

      .st1 {
        clip-path: url(#clippath-7);
      }

      .st2 {
        stroke: #aeaeae;
      }

      .st2, .st3, .st4, .st5, .st6 {
        fill: none;
      }

      .st2, .st5, .st6 {
        stroke-miterlimit: 8;
        stroke-width: 4.5px;
      }

      .st7 {
        clip-path: url(#clippath-4);
      }

      .st8 {
        clip-path: url(#clippath-9);
      }

      .st9 {
        font-family: Bauhaus93, 'Bauhaus 93';
        font-size: 39.96px;
      }

      .st10 {
        fill: #fff;
        fill-rule: evenodd;
      }

      .st11 {
        clip-path: url(#clippath-1);
      }

      .st12 {
        clip-path: url(#clippath-5);
      }

      .st13 {
        clip-path: url(#clippath-8);
      }

      .st14 {
        clip-path: url(#clippath-3);
      }

      .st4 {
        clip-rule: evenodd;
      }

      .st5 {
        stroke: red;
      }

      .st6 {
        stroke: #0164ff;
      }

      .st15 {
        clip-path: url(#clippath-2);
      }

      .st16 {
        clip-path: url(#clippath);
      }
    </style>
    <clipPath id="clippath">
      <polygon class="st4" points="-60.48 98.4 316.32 98.4 316.32 0 -60.48 0 -60.48 98.4 -60.48 98.4"/>
    </clipPath>
    <clipPath id="clippath-1">
      <polygon class="st4" points="-60.48 98.4 316.32 98.4 316.32 0 -60.48 0 -60.48 98.4 -60.48 98.4"/>
    </clipPath>
    <clipPath id="clippath-2">
      <polygon class="st4" points="-60.48 98.4 316.32 98.4 316.32 0 -60.48 0 -60.48 98.4 -60.48 98.4"/>
    </clipPath>
    <clipPath id="clippath-3">
      <polygon class="st4" points="-60.48 98.4 316.32 98.4 316.32 0 -60.48 0 -60.48 98.4 -60.48 98.4"/>
    </clipPath>
    <clipPath id="clippath-4">
      <polygon class="st4" points="-60.48 98.4 316.32 98.4 316.32 0 -60.48 0 -60.48 98.4 -60.48 98.4"/>
    </clipPath>
    <clipPath id="clippath-5">
      <polygon class="st4" points="-60.48 98.4 316.32 98.4 316.32 0 -60.48 0 -60.48 98.4 -60.48 98.4"/>
    </clipPath>
    <clipPath id="clippath-6">
      <polygon class="st4" points="-60.48 98.4 316.32 98.4 316.32 0 -60.48 0 -60.48 98.4 -60.48 98.4"/>
    </clipPath>
    <clipPath id="clippath-7">
      <polygon class="st4" points="-60.48 98.4 316.32 98.4 316.32 0 -60.48 0 -60.48 98.4 -60.48 98.4"/>
    </clipPath>
    <clipPath id="clippath-8">
      <polygon class="st4" points="-60.48 98.4 316.32 98.4 316.32 0 -60.48 0 -60.48 98.4 -60.48 98.4"/>
    </clipPath>
    <clipPath id="clippath-9">
      <rect class="st3" x="-60.48" width="376.8" height="98.4"/>
    </clipPath>
  </defs>
  <polygon class="st10" points="-60.48 0 316.32 0 316.32 98.4 -60.48 98.4 -60.48 0 -60.48 0"/>
  <path class="st2" d="M-45.6,72.48c6.27-5.64,12.55-11.28,18.74-11.28s12.28,11.28,18.43,11.28,12.28-11.28,18.43-11.28,12.28,11.28,18.43,11.28,12.28-11.28,18.43-11.28,12.28,11.28,18.43,11.28,12.28-11.28,18.43-11.28,12.28,11.28,18.43,11.28,12.28-11.28,18.43-11.28,12.28,11.28,18.43,11.28,12.28-11.28,18.43-11.28,12.28,11.28,18.43,11.28,12.28-11.28,18.43-11.28,12.28,11.28,18.43,11.28,12.28-5.64,18.43-11.28"/>
  <g class="st16">
    <path class="st2" d="M-33.48,72.48c6.28-5.64,12.55-11.28,18.75-11.28s12.29,11.28,18.44,11.28,12.29-11.28,18.44-11.28,12.29,11.28,18.44,11.28,12.29-11.28,18.44-11.28,12.29,11.28,18.44,11.28,12.29-11.28,18.44-11.28,12.29,11.28,18.44,11.28,12.29-11.28,18.44-11.28,12.29,11.28,18.44,11.28,12.29-11.28,18.44-11.28,12.29,11.28,18.44,11.28,12.29-11.28,18.44-11.28,12.29,11.28,18.44,11.28,12.29-5.64,18.44-11.28"/>
    <g class="st11">
      <polygon class="st10" points="206.4 44.64 243.12 44.64 243.12 64.56 206.4 64.56 206.4 44.64 206.4 44.64"/>
      <g class="st15">
        <polygon class="st10" points="-47.04 46.56 7.68 46.56 7.68 94.08 -47.04 94.08 -47.04 46.56 -47.04 46.56"/>
        <g class="st14">
          <polygon class="st10" points="213.12 66.48 286.32 66.48 286.32 77.76 213.12 77.76 213.12 66.48 213.12 66.48"/>
          <g class="st7">
            <polygon class="st10" points="209.52 48.12 282.72 48.12 282.72 68.04 209.52 68.04 209.52 48.12 209.52 48.12"/>
            <g class="st12">
              <line class="st2" x1="206.4" y1="61.2" x2="212.65" y2="61.2"/>
              <g class="st0">
                <line class="st6" x1="212.76" y1="72.48" x2="260.99" y2="72.48"/>
                <g class="st1">
                  <line class="st5" x1="212.76" y1="61.2" x2="243.13" y2="61.2"/>
                  <g class="st13">
                    <g class="st8">
                      <text class="st9" transform="translate(8.52 53.88)"><tspan x="0" y="0">TeloSearchLR</tspan></text>
                    </g>
                  </g>
                </g>
              </g>
            </g>
          </g>
        </g>
      </g>
    </g>
  </g>
</svg>